<mxfile host="app.diagrams.net" modified="2023-11-19T12:51:45.009Z" agent="Mozilla/5.0 (Windows NT 10.0; Win64; x64) AppleWebKit/537.36 (KHTML, like Gecko) Chrome/119.0.0.0 Safari/537.36 Edg/119.0.0.0" etag="Ea8F3BSO3NOkycrBDlsY" version="21.5.2" type="device">
  <diagram name="Page-1" id="DtvHh52toGwJB3GJCzD0">
    <mxGraphModel dx="786" dy="413" grid="1" gridSize="10" guides="1" tooltips="1" connect="1" arrows="1" fold="1" page="1" pageScale="1" pageWidth="850" pageHeight="1100" math="0" shadow="0">
      <root>
        <mxCell id="0" />
        <mxCell id="1" parent="0" />
        <mxCell id="6dVV4L94gBcCckuSrwRF-32" style="edgeStyle=orthogonalEdgeStyle;rounded=0;orthogonalLoop=1;jettySize=auto;html=1;exitX=1;exitY=0.5;exitDx=0;exitDy=0;entryX=0;entryY=0.5;entryDx=0;entryDy=0;" parent="1" source="6dVV4L94gBcCckuSrwRF-3" target="6dVV4L94gBcCckuSrwRF-9" edge="1">
          <mxGeometry relative="1" as="geometry" />
        </mxCell>
        <mxCell id="6dVV4L94gBcCckuSrwRF-3" value="&lt;b&gt;CLIENT&lt;/b&gt;&lt;br&gt;Endpoint: /ingest, /query&lt;br&gt;Port: 3000" style="whiteSpace=wrap;html=1;aspect=fixed;" parent="1" vertex="1">
          <mxGeometry x="50" y="140" width="120" height="120" as="geometry" />
        </mxCell>
        <mxCell id="6dVV4L94gBcCckuSrwRF-25" value="&lt;b&gt;&lt;font style=&quot;font-size: 15px;&quot;&gt;/ingest&lt;/font&gt;&lt;/b&gt;" style="edgeStyle=orthogonalEdgeStyle;rounded=0;orthogonalLoop=1;jettySize=auto;html=1;entryX=0;entryY=0;entryDx=0;entryDy=32.5;entryPerimeter=0;" parent="1" target="6dVV4L94gBcCckuSrwRF-15" edge="1">
          <mxGeometry relative="1" as="geometry">
            <mxPoint x="400" y="190" as="sourcePoint" />
            <mxPoint x="480" y="185" as="targetPoint" />
          </mxGeometry>
        </mxCell>
        <mxCell id="6dVV4L94gBcCckuSrwRF-9" value="&lt;b&gt;APP SERVER&lt;/b&gt;" style="whiteSpace=wrap;html=1;aspect=fixed;" parent="1" vertex="1">
          <mxGeometry x="290" y="140" width="120" height="120" as="geometry" />
        </mxCell>
        <mxCell id="6dVV4L94gBcCckuSrwRF-28" style="edgeStyle=orthogonalEdgeStyle;rounded=0;orthogonalLoop=1;jettySize=auto;html=1;exitX=0;exitY=0;exitDx=0;exitDy=67.5;exitPerimeter=0;" parent="1" source="6dVV4L94gBcCckuSrwRF-15" edge="1">
          <mxGeometry relative="1" as="geometry">
            <mxPoint x="410" y="228" as="targetPoint" />
          </mxGeometry>
        </mxCell>
        <mxCell id="6dVV4L94gBcCckuSrwRF-29" value="&lt;font style=&quot;font-size: 15px;&quot;&gt;&lt;b&gt;/query&lt;/b&gt;&lt;/font&gt;" style="edgeLabel;html=1;align=center;verticalAlign=middle;resizable=0;points=[];" parent="6dVV4L94gBcCckuSrwRF-28" vertex="1" connectable="0">
          <mxGeometry x="0.0443" y="-3" relative="1" as="geometry">
            <mxPoint as="offset" />
          </mxGeometry>
        </mxCell>
        <mxCell id="6dVV4L94gBcCckuSrwRF-15" value="&lt;b&gt;Mongo DB&lt;/b&gt;&lt;br&gt;(No SQL)" style="shape=cylinder3;whiteSpace=wrap;html=1;boundedLbl=1;backgroundOutline=1;size=15;" parent="1" vertex="1">
          <mxGeometry x="680" y="160" width="80" height="100" as="geometry" />
        </mxCell>
      </root>
    </mxGraphModel>
  </diagram>
</mxfile>
